<mxfile host="app.diagrams.net" modified="2023-10-20T06:13:13.639Z" agent="Mozilla/5.0 (Windows NT 10.0; Win64; x64) AppleWebKit/537.36 (KHTML, like Gecko) Chrome/118.0.0.0 Safari/537.36 Edg/118.0.2088.57" version="22.0.5" etag="YS6qE5ZAD5MIrAXWa2p4" type="github">
  <diagram name="第 1 页" id="r6cv0JPrVW1QD6f1oZ-5">
    <mxGraphModel>
      <root>
        <mxCell id="0" />
        <mxCell id="1" parent="0" />
      </root>
    </mxGraphModel>
  </diagram>
</mxfile>
